<svg xmlns="http://www.w3.org/2000/svg" viewBox="0 0 64 64"><defs><linearGradient id="lg" x1="0" y1="0" x2="1" y2="1"><stop offset="0" stop-color="#2c4a45"/><stop offset=".5" stop-color="#3b3a4f"/><stop offset="1" stop-color="#5a3354"/></linearGradient></defs><path fill="url(#lg)" fill-rule="evenodd" d="M33.21 61.49C34.45 61.30 35.91 60.72 37.02 59.96C37.75 59.47 38.76 58.47 39.28 57.74C40.73 55.72 41.15 53.56 40.65 50.69C40.28 48.55 40.42 47.37 41.23 45.80C41.66 44.97 42.25 44.20 43.13 43.32C44.28 42.17 45.44 41.37 46.68 40.88C48.12 40.30 49.37 40.18 51.01 40.45C52.17 40.65 53.83 40.61 54.77 40.37C56.50 39.93 57.90 39.15 59.10 37.94C60.12 36.92 60.80 35.82 61.24 34.48C61.60 33.37 61.66 32.98 61.66 31.74C61.66 30.54 61.60 30.12 61.28 29.13C60.24 25.93 57.51 23.59 54.13 23.00C53.44 22.87 51.60 22.91 50.85 23.07C50.59 23.12 50.11 23.18 49.80 23.20C48.69 23.28 47.13 22.94 45.99 22.36C44.10 21.41 42.00 19.35 41.19 17.65C40.43 16.06 40.30 14.87 40.67 12.93C41.23 10.03 40.35 7.13 38.31 5.09C37.03 3.80 35.54 3.00 33.69 2.59C32.93 2.41 31.17 2.43 30.31 2.62C28.48 3.02 27.14 3.75 25.81 5.08C24.37 6.51 23.51 8.24 23.28 10.15C23.19 10.98 23.25 12.45 23.42 13.21C23.78 14.85 23.60 16.21 22.81 17.74C22.62 18.11 22.31 18.61 22.13 18.86C21.62 19.55 20.33 20.83 19.59 21.39C18.89 21.92 17.78 22.53 17.00 22.80C15.85 23.22 14.41 23.30 12.98 23.05C12.45 22.95 11.95 22.91 11.39 22.91C9.89 22.91 8.72 23.17 7.44 23.80C4.89 25.05 3.14 27.26 2.53 30.01C2.37 30.71 2.33 32.38 2.46 33.08C2.98 36.11 4.86 38.50 7.62 39.67C8.84 40.18 10.62 40.39 11.95 40.17C12.71 40.05 13.64 39.76 14.33 39.43C16.19 38.55 17.96 36.57 18.56 34.71C18.85 33.84 18.90 33.48 18.95 32.00C19.04 29.75 19.20 28.74 19.70 27.25C21.22 22.70 25.02 19.38 29.69 18.50C30.61 18.33 32.44 18.27 33.38 18.38C36.40 18.73 39.05 20.05 41.15 22.25C43.06 24.24 44.23 26.60 44.73 29.45C44.88 30.25 45.02 33.57 44.96 34.74C44.86 36.80 43.81 39.01 42.09 40.81C40.16 42.84 37.81 44.08 35.32 44.40C35.00 44.44 33.87 44.48 32.80 44.49C30.62 44.51 30.27 44.56 29.09 45.00C26.97 45.80 25.10 47.50 24.06 49.56C23.58 50.53 23.23 52.04 23.23 53.18C23.23 55.48 24.48 58.09 26.27 59.54C28.36 61.21 30.69 61.87 33.21 61.49Z"/></svg>